<?xml version="1.0" encoding="utf-8"?><!-- Uploaded to: SVG Repo, www.svgrepo.com, Generator: SVG Repo Mixer Tools -->
<svg width="800px" height="800px" viewBox="0 0 960 960" fill="none" xmlns="http://www.w3.org/2000/svg">
<path d="M534.765 702.868C505.724 702.949 478.103 696.768 451.82 684.671C445.931 681.96 441.195 682.81 435.563 685.772C397.412 705.838 357.045 711.13 314.963 702.16C305.766 700.199 299.996 702.524 293.091 709.296C229.197 780.544 86.2627 785.908 53.3687 682.354C24.5617 594.5 46.3087 518.948 112.09 456.272C122.689 422.453 140.772 393.509 167.561 370.232C171.139 367.123 171.955 364.789 170.281 360.275C160.425 326.961 186.113 294.344 212.192 276.682C223.249 269.093 234.931 262.139 247.05 256.421C330.296 218.605 428.86 169.291 517.132 219.909C520.132 221.492 524.949 222.341 527.816 221.06C561.735 205.906 596.328 205.222 631.407 215.735C655.652 223.001 677.711 234.752 698.09 249.78C759.203 267.281 819.84 283.881 869.499 326.621C935.955 371.69 944.088 489.972 848.854 503.252C825.071 503.734 824.343 504.466 816.912 526.613C802.201 556.925 778.164 576.111 745.253 582.187C682.726 597.359 706.015 693.791 534.765 702.868ZM215.521 344.052C283.999 338.141 346.379 370.518 389.708 422.195C435.14 481.552 461.68 555.58 467.501 629.837C467.553 631.736 470.044 634.098 471.983 635.324C540.618 671.338 635.335 646.503 670.074 574.195C673.902 566.633 677.874 560.253 671.898 552.147C665.536 514.077 658.761 475.804 643.73 439.691C602.089 344.481 509.757 225.036 393.27 252.596C338.304 270.827 248.152 294.737 215.521 344.052ZM167.725 449.332C250.374 461.077 287.906 569.448 305.637 639.737C306.691 643.898 307.854 645.953 312.432 646.588C320.253 647.673 327.949 649.682 335.685 651.363C353.791 657.495 408.694 649.193 415.887 631.531C402.39 537.093 363.311 425.478 261.413 398.146C219.846 384.226 185.9 414.192 167.725 449.332ZM169.6 707.948C200.706 707.66 227.891 697.497 250.806 676.132C256.244 671.062 259.994 666.436 254.745 658.947C236.251 609.354 226.478 552.565 185.072 515.705C93.7017 448.522 49.4857 718.292 169.6 707.948ZM721.275 535.095C752.023 534.858 776.606 515.441 775.594 486.066C772.441 476.678 767.694 467.708 765.51 458.133C745.768 364.405 679.552 249.764 570.073 256.903C658.871 329.967 706.305 423.674 721.275 535.095ZM768.215 324.683C790.941 362.03 802.034 403.429 814.77 444.746C820.003 463.766 855.988 444.486 864.853 435.788C871.137 430.36 873.6 423.982 870.693 416.855C856.703 369.304 811.074 341.959 768.215 324.683Z" fill="#000000"/>
<path d="M215.52 344.053C247.933 294.83 338.483 270.77 393.263 252.6C509.812 225.021 602.008 344.497 643.734 439.684C658.752 475.801 665.544 514.082 671.894 552.148C677.872 560.254 673.899 566.634 670.073 574.193C635.398 646.535 540.57 671.322 471.981 635.329C470.042 634.099 467.552 631.738 467.496 629.839C461.676 555.586 435.143 481.549 389.71 422.195C346.37 370.515 284.006 338.146 215.52 344.053Z" fill="white"/>
<path d="M167.727 449.332C185.894 414.218 219.846 384.181 261.416 398.148C363.325 425.497 402.378 537.077 415.888 631.532C408.79 649.209 353.583 657.475 335.688 651.364C327.951 649.683 320.255 647.674 312.434 646.589C307.856 645.954 306.693 643.898 305.638 639.74C287.904 569.485 250.415 461.092 167.727 449.332Z" fill="white"/>
<path d="M169.598 707.948C74.8771 707.428 80.2111 565.238 132.302 514.634C200.308 464.171 239.362 615.23 254.742 658.946C259.992 666.436 256.242 671.062 250.804 676.132C227.889 697.497 200.704 707.66 169.598 707.948Z" fill="white"/>
<path d="M721.273 535.095C706.303 423.674 658.868 329.967 570.07 256.902C679.571 249.786 745.743 364.381 765.507 458.13C767.691 467.707 772.439 476.677 775.59 486.065C776.595 515.455 752.028 534.829 721.273 535.095Z" fill="white"/>
<path d="M768.215 324.684C811.072 341.958 856.705 369.307 870.693 416.856C873.6 423.982 871.138 430.361 864.854 435.788C856.037 444.508 819.95 463.735 814.771 444.748C802.033 403.428 790.942 362.033 768.215 324.684Z" fill="white"/>
</svg>