<?xml version="1.0" encoding="utf-8"?>

<!-- Uploaded to: SVG Repo, www.svgrepo.com, Generator: SVG Repo Mixer Tools -->
<svg version="1.1" id="Icons" xmlns="http://www.w3.org/2000/svg" xmlns:xlink="http://www.w3.org/1999/xlink" 
	 viewBox="0 0 32 32" xml:space="preserve">
<style type="text/css">
	.st0{fill:none;stroke:#000000;stroke-width:2;stroke-linecap:round;stroke-linejoin:round;stroke-miterlimit:10;}
</style>
<path class="st0" d="M12,26H6c-1.1,0-2-0.9-2-2v-9c0-1.1,0.9-2,2-2h6c1.1,0,2,0.9,2,2v9C14,25.1,13.1,26,12,26z"/>
<path class="st0" d="M9,6C6.9,6,5,6.9,4.2,8.2C3.6,9,4.4,10,5.7,10h6.7c1.2,0,2-1,1.5-1.8C13,6.9,11.1,6,9,6z"/>
<line class="st0" x1="6" y1="13" x2="6" y2="10"/>
<line class="st0" x1="12" y1="10" x2="12" y2="13"/>
<line class="st0" x1="7" y1="17" x2="7" y2="26"/>
<line class="st0" x1="11" y1="17" x2="11" y2="26"/>
<path class="st0" d="M26,26h-6c-1.1,0-2-0.9-2-2v-9c0-1.1,0.9-2,2-2h6c1.1,0,2,0.9,2,2v9C28,25.1,27.1,26,26,26z"/>
<path class="st0" d="M23,6c-2.1,0-4,0.9-4.8,2.2C17.6,9,18.4,10,19.7,10h6.7c1.2,0,2-1,1.5-1.8C27,6.9,25.1,6,23,6z"/>
<line class="st0" x1="20" y1="13" x2="20" y2="10"/>
<line class="st0" x1="26" y1="10" x2="26" y2="13"/>
<line class="st0" x1="21" y1="17" x2="21" y2="26"/>
<line class="st0" x1="25" y1="17" x2="25" y2="26"/>
</svg>